<svg width="54" height="53" viewBox="0 0 54 53" fill="none" xmlns="http://www.w3.org/2000/svg">
<g id="24 / reactions / shocked">
<path id="icon" fill-rule="evenodd" clip-rule="evenodd" d="M2.25 26.5002C2.25 39.9161 13.331 50.7918 27 50.7918C40.669 50.7918 51.75 39.9161 51.75 26.5002C51.75 13.0842 40.669 2.2085 27 2.2085C13.331 2.2085 2.25 13.0842 2.25 26.5002ZM47.25 26.5002C47.25 37.4768 38.1838 46.3752 27 46.3752C15.8162 46.3752 6.75 37.4768 6.75 26.5002C6.75 15.5235 15.8162 6.62516 27 6.62516C38.1838 6.62516 47.25 15.5235 47.25 26.5002ZM27 22.0835C31.9706 22.0835 36 26.0383 36 30.9168V33.1252C36 38.0037 31.9706 41.9585 27 41.9585C22.0294 41.9585 18 38.0037 18 33.1252V30.9168C18 26.0383 22.0294 22.0835 27 22.0835ZM22.5 30.9168C22.5 28.4776 24.5147 26.5002 27 26.5002C29.4853 26.5002 31.5 28.4776 31.5 30.9168V33.1252C31.5 35.5644 29.4853 37.5418 27 37.5418C24.5147 37.5418 22.5 35.5644 22.5 33.1252V30.9168ZM33.75 15.4585H38.25V19.8752H33.75V15.4585ZM20.25 15.4585H15.75V19.8752H20.25V15.4585Z" fill="#2E363E"/>
</g>
</svg>
