<svg width="37" height="37" viewBox="0 0 37 37" fill="none" xmlns="http://www.w3.org/2000/svg">
<g id="24 / basic / user">
<rect width="37" height="37" fill="#2699FB"/>
<path id="icon" fill-rule="evenodd" clip-rule="evenodd" d="M18.5001 35.4582C9.13425 35.4582 1.54175 27.8657 1.54175 18.4998C1.54175 9.13401 9.13425 1.5415 18.5001 1.5415C27.8659 1.5415 35.4584 9.13401 35.4584 18.4998C35.4584 27.8657 27.8659 35.4582 18.5001 35.4582ZM29.9076 26.4003C31.4634 24.1582 32.3751 21.4355 32.3751 18.4998C32.3751 10.8369 26.163 4.62484 18.5001 4.62484C10.8371 4.62484 4.62508 10.8369 4.62508 18.4998C4.62508 21.4355 5.5368 24.1582 7.09253 26.4003C8.82759 24.1085 12.9048 23.1248 18.5001 23.1248C24.0954 23.1248 28.1726 24.1085 29.9076 26.4003ZM27.6956 28.8903C27.2444 27.2678 24.0029 26.2082 18.5001 26.2082C12.9973 26.2082 9.75575 27.2678 9.30453 28.8903C11.7527 31.0585 14.9727 32.3748 18.5001 32.3748C22.0275 32.3748 25.2475 31.0585 27.6956 28.8903ZM18.5001 9.24984C14.7679 9.24984 12.3334 11.9566 12.3334 15.4165C12.3334 20.7004 15.0481 23.1248 18.5001 23.1248C21.9196 23.1248 24.6667 20.7809 24.6667 15.7248C24.6667 12.2123 22.222 9.24984 18.5001 9.24984ZM15.4167 15.4165C15.4167 18.9149 16.6782 20.0415 18.5001 20.0415C20.3157 20.0415 21.5834 18.9599 21.5834 15.7248C21.5834 13.7984 20.3742 12.3332 18.5001 12.3332C16.5479 12.3332 15.4167 13.5909 15.4167 15.4165Z" fill="#2E363E"/>
</g>
</svg>
